<svg width="32" height="32" viewBox="0 0 32 32" fill="none" xmlns="http://www.w3.org/2000/svg">
<path d="M24.398 7.61363C24.1489 7.36396 23.8107 7.22365 23.458 7.22365C23.1053 7.22365 22.7671 7.36396 22.518 7.61363L15.998 14.1203L9.47801 7.60029C9.2289 7.35062 8.8907 7.21031 8.53801 7.21031C8.18532 7.21031 7.84712 7.35062 7.59801 7.60029C7.07801 8.12029 7.07801 8.96029 7.59801 9.48029L14.118 16.0003L7.59801 22.5203C7.07801 23.0403 7.07801 23.8803 7.59801 24.4003C8.11801 24.9203 8.95801 24.9203 9.47801 24.4003L15.998 17.8803L22.518 24.4003C23.038 24.9203 23.878 24.9203 24.398 24.4003C24.918 23.8803 24.918 23.0403 24.398 22.5203L17.878 16.0003L24.398 9.48029C24.9047 8.97363 24.9047 8.12029 24.398 7.61363Z" fill="url(#paint0_linear_464_45)"/>
<defs>
<linearGradient id="paint0_linear_464_45" x1="6.81858" y1="14.0092" x2="42.026" y2="13.7887" gradientUnits="userSpaceOnUse">
<stop stop-color="#FAFAFA"/>
<stop offset="1" stop-color="#FAFAFA" stop-opacity="0"/>
</linearGradient>
</defs>
</svg>
