<svg width="190" height="48" viewBox="0 0 190 48" fill="none" xmlns="http://www.w3.org/2000/svg">
<path fill-rule="evenodd" clip-rule="evenodd" d="M26.6263 27.2053C25.4515 26.1923 24.2692 25.1728 23.0636 24.1417C18.8344 32.132 14.6053 40.0656 10.3762 47.9992L10.3758 48C10.545 48 10.6577 47.9433 10.7141 47.8867C17.5937 42.5596 24.4733 37.2326 31.4657 31.9055C31.8604 31.5655 32.3116 31.2822 32.7627 31.0555C35.2156 29.7804 37.6545 28.5195 40.0934 27.2586C42.5323 25.9976 44.9711 24.7367 47.4241 23.4616C47.5334 23.425 47.6426 23.3648 47.767 23.2962C47.8353 23.2586 47.9081 23.2184 47.988 23.1783C47.8189 23.0649 47.7061 22.9516 47.5933 22.8383L47.5933 22.8383C44.3503 20.0042 41.1214 17.1844 37.8925 14.3645C34.6647 11.5456 31.4369 8.72677 28.1951 5.89374C27.9695 5.66706 27.6312 5.44038 27.3492 5.38371C25.4978 4.9824 23.6698 4.62807 21.8501 4.27534C20.8431 4.08016 19.8387 3.88547 18.8343 3.68359C16.3814 3.2019 13.9144 2.7202 11.4473 2.23851C8.98021 1.7568 6.5131 1.2751 4.06009 0.793388C3.38341 0.651712 2.72082 0.524203 2.05824 0.396694C1.39566 0.269185 0.733072 0.141677 0.0563901 0C0.0563901 0 0 0.0566706 0 0.113341C5.6725 4.21945 11.3171 8.3536 16.9731 12.4961C19.3574 14.2424 21.7437 15.9901 24.135 17.7379C24.6065 16.0792 25.0682 14.4305 25.5283 12.7875C26.1686 10.501 26.8058 8.22573 27.462 5.95041C27.5748 6.00708 27.5748 6.06375 27.5748 6.12043C26.3906 11.6741 25.15 17.2279 23.9094 22.7816C23.7966 23.1216 23.853 23.405 24.135 23.6883C25.2064 24.7934 26.2778 25.9126 27.3492 27.0319C28.4206 28.1511 29.492 29.2704 30.5635 30.3754C30.6198 30.4321 30.6762 30.5029 30.7326 30.5738C30.789 30.6446 30.8454 30.7155 30.9018 30.7721L30.8454 30.8288C29.4314 29.624 28.0342 28.4193 26.6263 27.2053ZM55.2968 15.3255C56.9303 14.9817 58.5498 14.6408 60.1883 14.281C60.1001 14.215 60.029 14.149 59.9651 14.0896C59.8644 13.9961 59.7815 13.919 59.6773 13.8844C57.7467 12.2409 55.8162 10.6541 53.8856 9.06735C53.5449 8.784 53.261 8.72733 52.8635 8.89734C51.0465 9.54906 49.2437 10.2149 47.4409 10.8808C45.6381 11.5467 43.8353 12.2126 42.0183 12.8643C41.1666 13.2043 40.3148 13.5443 39.3495 13.8844C42.4157 16.9446 45.4252 19.9481 48.4914 23.065C50.0812 18.4747 51.6143 13.941 53.1474 9.40738C53.1801 9.43995 53.194 9.4538 53.2106 9.45969C53.223 9.46405 53.2369 9.46405 53.261 9.46405C52.75 11.6175 52.2389 13.771 51.6711 16.0945C52.8957 15.8309 54.1 15.5774 55.2968 15.3255Z" fill="#007672"/>
<path fill-rule="evenodd" clip-rule="evenodd" d="M74.5582 18.189V34.3262H71.2691V18.189H65.8818V15.0305H80.0021V18.189H74.5582Z" fill="#101820"/>
<path fill-rule="evenodd" clip-rule="evenodd" d="M82.2543 25.7456H88.3788C88.3221 24.7119 87.9818 23.9654 87.4714 23.4485C86.9611 22.9317 86.2806 22.6445 85.4867 22.6445C84.5793 22.6445 83.8421 22.8742 83.2183 23.3911C82.6513 23.9079 82.311 24.6545 82.2543 25.7456ZM85.4866 34.5321C83.5018 34.5321 81.9707 33.9004 80.7799 32.5789C79.6457 31.2587 79.0786 29.4784 79.0786 27.1813C79.0786 24.8842 79.6457 23.1039 80.8366 21.7831C81.9707 20.4623 83.5585 19.8306 85.5433 19.8306C87.3013 19.8306 88.7757 20.4048 89.9098 21.496C91.044 22.6445 91.6111 24.2525 91.6111 26.4348C91.6111 27.1813 91.5544 27.8704 91.4977 28.4447H82.2543C82.311 29.4204 82.6512 30.225 83.275 30.8561C83.8988 31.4884 84.636 31.7755 85.5433 31.7755C86.7909 31.7755 87.7549 31.3161 88.4921 30.3398L90.5336 32.4072C89.2293 33.7855 87.5848 34.5321 85.4866 34.5321Z" fill="#101820"/>
<path fill-rule="evenodd" clip-rule="evenodd" d="M99.713 34.5321C97.7849 34.5321 96.3105 33.9004 95.1763 32.5795C94.0422 31.2587 93.4751 29.4784 93.4751 27.1813C93.4751 24.8842 94.0422 23.1039 95.1763 21.7831C96.3105 20.4623 97.7849 19.8306 99.713 19.8306C102.605 19.8306 104.42 21.1514 105.214 23.7357L102.208 24.7694C101.754 23.5634 100.961 22.9317 99.8264 22.9317C98.8624 22.9317 98.1252 23.3337 97.5581 24.0802C96.991 24.8268 96.7642 25.9179 96.7642 27.2387C96.7642 28.5596 97.0477 29.5933 97.5581 30.3398C98.0684 31.0864 98.8051 31.4884 99.713 31.4884C101.017 31.4884 101.868 30.7993 102.265 29.421L105.326 30.3398C104.476 33.1538 102.605 34.5321 99.713 34.5321Z" fill="#101820"/>
<path fill-rule="evenodd" clip-rule="evenodd" d="M107.871 33.7011V15.3243L111.047 13.8306V20.9522C111.954 19.8605 113.202 19.2862 114.733 19.2862C116.207 19.2862 117.342 19.7462 118.306 20.665C119.213 21.5833 119.667 23.019 119.667 25.029V33.7011H116.491V25.6032C116.491 23.479 115.64 22.3879 113.882 22.3879C112.011 22.3879 111.047 23.4216 111.047 25.5464V33.7586L107.871 33.7011Z" fill="#101820"/>
<path fill-rule="evenodd" clip-rule="evenodd" d="M140.172 33.7421H136.893V23.8297C136.893 22.9944 136.95 22.2699 137.006 21.6022C136.78 22.2699 136.498 22.9944 136.158 23.8854L131.522 34.0762L126.887 23.8297C126.547 23.1052 126.265 22.3818 125.982 21.6022C126.039 22.2699 126.096 23.0501 126.096 23.8297V33.7978H122.817V15.0305H126.096L130.957 26.0015C131.184 26.5027 131.353 26.9482 131.466 27.3937C131.635 26.9482 131.805 26.5027 131.975 26.0015L136.893 15.0305H140.059V33.7421H140.172Z" fill="#007672"/>
<path fill-rule="evenodd" clip-rule="evenodd" d="M148.808 31.4687C149.996 31.4687 151.069 31.0232 151.917 30.1328V28.3502C151.126 27.9604 150.221 27.7933 149.148 27.7933C148.3 27.7933 147.621 27.9604 147.112 28.2388C146.604 28.5173 146.321 29.019 146.321 29.631C146.321 30.1879 146.547 30.6334 146.999 30.9681C147.394 31.3016 148.017 31.4687 148.808 31.4687ZM151.917 33.8638V32.7501C151.013 33.6962 149.769 34.1422 148.242 34.1422C146.773 34.1422 145.529 33.7524 144.625 32.9723C143.72 32.1932 143.212 31.0794 143.212 29.631C143.212 28.1274 143.72 27.0137 144.794 26.2898C145.869 25.5658 147.112 25.1209 148.638 25.1209C149.938 25.1209 151.069 25.3431 151.917 25.8443V25.1209C151.917 24.2293 151.692 23.6168 151.239 23.2269C150.786 22.8371 150.109 22.6149 149.204 22.6149C147.677 22.6149 146.321 23.0599 145.077 23.8952L144.116 21.3336C145.642 20.3312 147.452 19.8306 149.543 19.8306C150.278 19.8306 150.9 19.8857 151.465 19.9971C152.03 20.109 152.595 20.3312 153.161 20.6659C153.726 20.9994 154.178 21.5563 154.518 22.2803C154.857 23.0042 155.026 23.8952 155.026 25.0089V33.8076L151.917 33.8638Z" fill="#007672"/>
<path fill-rule="evenodd" clip-rule="evenodd" d="M163.883 31.1351C165.014 31.1351 165.919 30.6896 166.484 29.7992V24.1742C165.862 23.2832 164.957 22.8382 163.883 22.8382C162.866 22.8382 162.131 23.1718 161.565 23.8958C161.057 24.6202 160.774 25.6226 160.774 27.0148C160.774 28.2951 161.057 29.2974 161.565 30.0776C162.131 30.801 162.922 31.1351 163.883 31.1351ZM163.148 39.1541L161.452 36.6482C163.375 36.5368 164.675 36.2584 165.41 35.7577C166.145 35.3117 166.484 34.5877 166.484 33.6411V32.862C165.749 33.6973 164.675 34.0871 163.318 34.0871C161.622 34.0871 160.266 33.474 159.191 32.2489C158.117 31.0243 157.608 29.2423 157.608 26.9586C157.608 24.7311 158.117 23.0048 159.191 21.7245C160.266 20.4431 161.622 19.8306 163.375 19.8306C164.675 19.8306 165.692 20.2204 166.484 21V20.1647H169.65V32.4716C169.65 34.7548 169.141 36.3697 168.18 37.3721C167.219 38.3745 165.523 38.9876 163.148 39.1541Z" fill="#007672"/>
<path fill-rule="evenodd" clip-rule="evenodd" d="M172.344 33.0984H175.511V19.455H172.344V33.0984ZM175.284 17.0604C174.945 17.4503 174.493 17.6173 173.927 17.6173C173.418 17.6173 172.966 17.4503 172.57 17.0604C172.174 16.6706 172.005 16.2808 172.005 15.7239C172.005 15.2228 172.174 14.7773 172.57 14.3874C172.966 14.0533 173.362 13.8306 173.927 13.8306C174.436 13.8306 174.889 13.9976 175.284 14.3874C175.624 14.7216 175.85 15.1671 175.85 15.7239C175.793 16.2251 175.624 16.6706 175.284 17.0604Z" fill="#007672"/>
<path fill-rule="evenodd" clip-rule="evenodd" d="M184.222 34.0866C182.3 34.0866 180.83 33.474 179.699 32.1932C178.568 30.9124 178.003 29.1861 178.003 26.9586C178.003 24.7311 178.568 23.0048 179.699 21.7239C180.83 20.4431 182.3 19.8306 184.222 19.8306C187.105 19.8306 188.914 21.1114 189.705 23.6173L186.709 24.6197C186.257 23.4503 185.465 22.8377 184.335 22.8377C183.374 22.8377 182.639 23.2275 182.074 23.9514C181.508 24.6754 181.282 25.7334 181.282 27.0143C181.282 28.2951 181.565 29.2974 182.074 30.0214C182.582 30.7453 183.317 31.1351 184.222 31.1351C185.522 31.1351 186.37 30.4669 186.766 29.1304L189.818 30.0214C188.97 32.7501 187.105 34.0866 184.222 34.0866Z" fill="#007672"/>
</svg>
